<svg width="32" height="32" viewBox="0 0 32 32" fill="none" xmlns="http://www.w3.org/2000/svg">
<g clip-path="url(#clip0_84_110)">
<path fill-rule="evenodd" clip-rule="evenodd" d="M31.056 5.92192C31.3344 6.03331 31.5732 6.22578 31.7415 6.4745C31.9097 6.72321 31.9998 7.01677 32 7.31728V24.6831C31.9998 24.9836 31.9097 25.2772 31.7415 25.5259C31.5732 25.7746 31.3344 25.9671 31.056 26.0785L16.556 31.8925C16.1984 32.0358 15.7996 32.0358 15.442 31.8925L0.942 26.0785C0.663938 25.9668 0.425611 25.7742 0.257721 25.5255C0.0898312 25.2768 6.97198e-05 24.9834 0 24.6831L0 7.31728C6.97198e-05 7.017 0.0898312 6.72361 0.257721 6.47492C0.425611 6.22623 0.663938 6.03362 0.942 5.92192L14.886 0.330447L14.894 0.328442L15.442 0.107911C15.8002 -0.0359703 16.1998 -0.0359703 16.558 0.107911L17.106 0.328442L17.114 0.330447L31.056 5.92192ZM28.308 6.97846L16 11.9144L3.692 6.97846L2 7.6581V8.46003L15 13.6726V29.5549L16 29.9558L17 29.5549V13.6746L30 8.46204V7.66011L28.308 6.97846Z" fill="#F6FEFA"/>
</g>
<defs>
<clipPath id="clip0_84_110">
<rect width="32" height="32" fill="white"/>
</clipPath>
</defs>
</svg>
