<svg width="32" height="33" viewBox="0 0 32 33" fill="none" xmlns="http://www.w3.org/2000/svg">
<g clip-path="url(#clip0_84_228)">
<path d="M6 0.5C5.46957 0.5 4.96086 0.710714 4.58579 1.08579C4.21071 1.46086 4 1.96957 4 2.5V30.5C4 31.0304 4.21071 31.5391 4.58579 31.9142C4.96086 32.2893 5.46957 32.5 6 32.5H12V25.5C12 25.2348 12.1054 24.9804 12.2929 24.7929C12.4804 24.6054 12.7348 24.5 13 24.5H19C19.2652 24.5 19.5196 24.6054 19.7071 24.7929C19.8946 24.9804 20 25.2348 20 25.5V32.5H26C26.5304 32.5 27.0391 32.2893 27.4142 31.9142C27.7893 31.5391 28 31.0304 28 30.5V2.5C28 1.96957 27.7893 1.46086 27.4142 1.08579C27.0391 0.710714 26.5304 0.5 26 0.5H6ZM8 5.5C8 5.23478 8.10536 4.98043 8.29289 4.79289C8.48043 4.60536 8.73478 4.5 9 4.5H11C11.2652 4.5 11.5196 4.60536 11.7071 4.79289C11.8946 4.98043 12 5.23478 12 5.5V7.5C12 7.76522 11.8946 8.01957 11.7071 8.20711C11.5196 8.39464 11.2652 8.5 11 8.5H9C8.73478 8.5 8.48043 8.39464 8.29289 8.20711C8.10536 8.01957 8 7.76522 8 7.5V5.5ZM14 5.5C14 5.23478 14.1054 4.98043 14.2929 4.79289C14.4804 4.60536 14.7348 4.5 15 4.5H17C17.2652 4.5 17.5196 4.60536 17.7071 4.79289C17.8946 4.98043 18 5.23478 18 5.5V7.5C18 7.76522 17.8946 8.01957 17.7071 8.20711C17.5196 8.39464 17.2652 8.5 17 8.5H15C14.7348 8.5 14.4804 8.39464 14.2929 8.20711C14.1054 8.01957 14 7.76522 14 7.5V5.5ZM21 4.5H23C23.2652 4.5 23.5196 4.60536 23.7071 4.79289C23.8946 4.98043 24 5.23478 24 5.5V7.5C24 7.76522 23.8946 8.01957 23.7071 8.20711C23.5196 8.39464 23.2652 8.5 23 8.5H21C20.7348 8.5 20.4804 8.39464 20.2929 8.20711C20.1054 8.01957 20 7.76522 20 7.5V5.5C20 5.23478 20.1054 4.98043 20.2929 4.79289C20.4804 4.60536 20.7348 4.5 21 4.5ZM8 11.5C8 11.2348 8.10536 10.9804 8.29289 10.7929C8.48043 10.6054 8.73478 10.5 9 10.5H11C11.2652 10.5 11.5196 10.6054 11.7071 10.7929C11.8946 10.9804 12 11.2348 12 11.5V13.5C12 13.7652 11.8946 14.0196 11.7071 14.2071C11.5196 14.3946 11.2652 14.5 11 14.5H9C8.73478 14.5 8.48043 14.3946 8.29289 14.2071C8.10536 14.0196 8 13.7652 8 13.5V11.5ZM15 10.5H17C17.2652 10.5 17.5196 10.6054 17.7071 10.7929C17.8946 10.9804 18 11.2348 18 11.5V13.5C18 13.7652 17.8946 14.0196 17.7071 14.2071C17.5196 14.3946 17.2652 14.5 17 14.5H15C14.7348 14.5 14.4804 14.3946 14.2929 14.2071C14.1054 14.0196 14 13.7652 14 13.5V11.5C14 11.2348 14.1054 10.9804 14.2929 10.7929C14.4804 10.6054 14.7348 10.5 15 10.5ZM20 11.5C20 11.2348 20.1054 10.9804 20.2929 10.7929C20.4804 10.6054 20.7348 10.5 21 10.5H23C23.2652 10.5 23.5196 10.6054 23.7071 10.7929C23.8946 10.9804 24 11.2348 24 11.5V13.5C24 13.7652 23.8946 14.0196 23.7071 14.2071C23.5196 14.3946 23.2652 14.5 23 14.5H21C20.7348 14.5 20.4804 14.3946 20.2929 14.2071C20.1054 14.0196 20 13.7652 20 13.5V11.5ZM9 16.5H11C11.2652 16.5 11.5196 16.6054 11.7071 16.7929C11.8946 16.9804 12 17.2348 12 17.5V19.5C12 19.7652 11.8946 20.0196 11.7071 20.2071C11.5196 20.3946 11.2652 20.5 11 20.5H9C8.73478 20.5 8.48043 20.3946 8.29289 20.2071C8.10536 20.0196 8 19.7652 8 19.5V17.5C8 17.2348 8.10536 16.9804 8.29289 16.7929C8.48043 16.6054 8.73478 16.5 9 16.5ZM14 17.5C14 17.2348 14.1054 16.9804 14.2929 16.7929C14.4804 16.6054 14.7348 16.5 15 16.5H17C17.2652 16.5 17.5196 16.6054 17.7071 16.7929C17.8946 16.9804 18 17.2348 18 17.5V19.5C18 19.7652 17.8946 20.0196 17.7071 20.2071C17.5196 20.3946 17.2652 20.5 17 20.5H15C14.7348 20.5 14.4804 20.3946 14.2929 20.2071C14.1054 20.0196 14 19.7652 14 19.5V17.5ZM21 16.5H23C23.2652 16.5 23.5196 16.6054 23.7071 16.7929C23.8946 16.9804 24 17.2348 24 17.5V19.5C24 19.7652 23.8946 20.0196 23.7071 20.2071C23.5196 20.3946 23.2652 20.5 23 20.5H21C20.7348 20.5 20.4804 20.3946 20.2929 20.2071C20.1054 20.0196 20 19.7652 20 19.5V17.5C20 17.2348 20.1054 16.9804 20.2929 16.7929C20.4804 16.6054 20.7348 16.5 21 16.5Z" fill="#168888"/>
</g>
<defs>
<clipPath id="clip0_84_228">
<rect width="32" height="32" fill="white" transform="translate(0 0.5)"/>
</clipPath>
</defs>
</svg>
