<svg width="48" height="48" viewBox="0 0 48 48" fill="none" xmlns="http://www.w3.org/2000/svg">
<path d="M23.5 2C11.6263 2 2 11.6263 2 23.5C2 35.3737 11.6263 45 23.5 45C35.3737 45 45 35.3737 45 23.5C45 11.6263 35.3737 2 23.5 2ZM16.463 5.49451C14.369 7.77208 12.7106 11.048 11.6965 14.9001H6.17814C8.31386 10.6286 11.9831 7.25104 16.463 5.49451ZM4.15 23.5C4.15 21.2325 4.57639 19.0718 5.29739 17.05H11.2178C10.8308 19.0903 10.6 21.2461 10.6 23.5C10.6 25.7539 10.8308 27.9097 11.217 29.95H5.29739C4.57639 27.9282 4.15 25.7676 4.15 23.5ZM6.17814 32.1H11.6965C12.7113 35.9521 14.369 39.2279 16.463 41.5055C11.9831 39.749 8.31386 36.3714 6.17814 32.1ZM22.425 42.7482C18.7456 42.0552 15.5486 37.857 13.9124 32.1H22.425V42.7482ZM22.425 29.95H13.4C12.9865 27.9204 12.75 25.751 12.75 23.5C12.75 21.249 12.9865 19.0796 13.4 17.05H22.425V29.95ZM22.425 14.9H13.9124C15.5486 9.14304 18.7456 4.94474 22.425 4.25179V14.9ZM40.8219 14.9H35.3035C34.2887 11.0479 32.631 7.77199 30.537 5.49442C35.0169 7.25104 38.6861 10.6286 40.8219 14.9ZM24.575 4.25179C28.2544 4.94483 31.4514 9.14304 33.0876 14.9H24.575V4.25179ZM24.575 17.05H33.6C34.0135 19.0796 34.25 21.249 34.25 23.5C34.25 25.751 34.0135 27.9204 33.6 29.95H24.575V17.05ZM24.575 42.7482V32.1H33.0876C31.4514 37.857 28.2544 42.0553 24.575 42.7482ZM30.537 41.5055C32.631 39.2272 34.2887 35.952 35.3035 32.1H40.8219C38.6861 36.3714 35.0169 39.749 30.537 41.5055ZM35.7822 29.95C36.1692 27.9097 36.4 25.7539 36.4 23.5C36.4 21.2461 36.1692 19.0903 35.783 17.05H41.7034C42.4236 19.0718 42.85 21.2325 42.85 23.5C42.85 25.7676 42.4236 27.9282 41.7026 29.95H35.7822Z" fill="#168888"/>
</svg>
