<svg width="48" height="48" viewBox="0 0 48 48" fill="none" xmlns="http://www.w3.org/2000/svg">
<path d="M35.8086 11.2203C33.14 6.76155 29.3514 3.05601 24.8083 0.461014L24 0L23.1917 0.461014C18.5712 3.09062 14.7346 6.8739 12.0677 11.4302C9.40085 15.9865 7.99789 21.1551 8 26.4159C8 26.7586 8.00606 27.1067 8.01786 27.4505C8.17846 32.112 9.98618 36.0344 13.2456 38.7936C15.7398 40.9052 18.9392 42.1942 22.3863 42.5018V48H25.6145V22.5318H22.3859V39.2978C16.9318 38.6748 11.5034 34.8752 11.244 27.3423C11.2333 27.0344 11.2278 26.7227 11.2278 26.4159C11.2375 21.8734 12.4139 17.4073 14.6473 13.4344C16.8807 9.46149 20.0984 6.11135 24 3.69657C27.9015 6.11139 31.1191 9.46156 33.3525 13.4344C35.5858 17.4073 36.7622 21.8734 36.7718 26.4159C36.7718 26.7227 36.7663 27.0344 36.7556 27.3424C36.5482 33.3685 33.0323 37.0051 28.842 38.5381V41.9073C31.0164 41.2995 33.0329 40.2376 34.7544 38.7934C38.0138 36.0342 39.8215 32.1118 39.9821 27.4504C39.9939 27.1066 40 26.7585 40 26.4158C40.0029 21.0726 38.5557 15.8259 35.8086 11.2203Z" fill="#168888"/>
</svg>
