<svg width="48" height="48" viewBox="0 0 48 48" fill="none" xmlns="http://www.w3.org/2000/svg">
<g clip-path="url(#clip0_84_37)">
<path d="M29.2559 18.5791C31.0529 20.3791 34.4459 19.8901 36.8399 17.4931C39.2339 15.0961 39.7199 11.6971 37.9259 9.90005C36.1289 8.10005 32.7359 8.58605 30.3419 10.9831C27.9479 13.3831 27.4619 16.7821 29.2559 18.5791Z" fill="#168888"/>
<path d="M47.4331 9.93608C46.3441 14.5381 43.4311 20.8141 36.5131 28.5901L35.7931 35.8141C35.6013 37.5449 34.827 39.1592 33.5971 40.3921L26.4511 47.5501C26.2242 47.7795 25.9306 47.9313 25.6122 47.9838C25.2938 48.0363 24.967 47.9868 24.6785 47.8423C24.3899 47.6979 24.1544 47.4659 24.0057 47.1796C23.8569 46.8933 23.8025 46.5672 23.8501 46.2481L24.6601 40.5511C24.7801 39.7111 24.6211 38.7721 24.2671 37.6831C24.0427 37.017 23.7936 36.3596 23.5201 35.7121L23.2741 35.1061C20.8291 34.5151 18.5401 33.1201 16.7011 31.2751C14.8591 29.4301 13.4641 27.1381 12.8761 24.6901L12.2671 24.4411C11.6214 24.1692 10.966 23.921 10.3021 23.6971C9.21314 23.3401 8.27714 23.1811 7.43714 23.3011L1.74914 24.1111C1.43026 24.158 1.10472 24.1029 0.818954 23.9539C0.533191 23.8048 0.301801 23.5693 0.157794 23.281C0.0137873 22.9926 -0.0354819 22.6661 0.0170151 22.3481C0.069512 22.0301 0.221094 21.7368 0.450137 21.5101L7.59614 14.3521C8.82614 13.1221 10.4371 12.3421 12.1681 12.1501H12.1861L19.3861 11.4361C27.0151 4.65008 33.2611 1.74608 37.8691 0.624078C40.5391 -0.0269222 42.6391 -0.0719222 44.1091 0.0600778C44.8411 0.129078 45.4141 0.240078 45.8191 0.339078C46.0201 0.390078 46.1791 0.438078 46.2991 0.474078C46.8511 0.654078 47.1361 0.864078 47.3521 1.35908L47.4391 1.57808C47.6725 2.28032 47.8303 3.0054 47.9101 3.74108C48.0751 5.19608 48.0631 7.27508 47.4331 9.93608ZM32.9491 32.3611L33.0691 32.2411L32.7481 35.4841C32.6307 36.5201 32.1653 37.4857 31.4281 38.2231L27.5341 42.1231L27.6961 40.9831C27.9121 39.4651 27.5941 38.0041 27.1801 36.7291C27.0288 36.2746 26.8647 35.8244 26.6881 35.3791C28.9021 35.1841 31.0741 34.2391 32.9491 32.3611ZM15.6151 15.0001C13.7401 16.8781 12.7951 19.0531 12.6031 21.2701C12.1578 21.0934 11.7077 20.9294 11.2531 20.7781C9.98114 20.3641 8.52314 20.0461 7.00514 20.2621L5.86514 20.4241L9.76514 16.5241C10.5001 15.7861 11.4631 15.3211 12.4951 15.2041L15.7351 14.8831L15.6151 15.0001ZM43.8331 3.11708C42.6931 3.01508 40.9321 3.03608 38.5951 3.60608C33.9211 4.74608 26.8441 8.09408 17.7841 17.1691C15.9241 19.0291 15.3871 21.1891 15.7231 23.3221C16.0441 25.3501 17.1721 27.4081 18.8671 29.1061C20.5591 30.8011 22.6171 31.9291 24.6391 32.2531C26.7691 32.5891 28.9261 32.0521 30.7831 30.1891C40.0201 20.9401 43.3591 13.8571 44.4511 9.22808C45.0001 6.91508 44.9911 5.19308 44.8651 4.08908C44.8345 3.80398 44.7894 3.52062 44.7301 3.24008C44.4323 3.18434 44.132 3.14329 43.8301 3.11708H43.8331Z" fill="#168888"/>
<path d="M21.0268 36.4171C19.032 35.3404 17.2081 33.9735 15.6148 32.3611C13.9068 30.6703 12.478 28.719 11.3818 26.5801C8.07585 29.5561 5.48685 41.7421 5.86485 42.1201C6.23985 42.4981 17.6728 39.4321 21.0268 36.4141V36.4171Z" fill="#168888"/>
</g>
<defs>
<clipPath id="clip0_84_37">
<rect width="48" height="48" fill="white"/>
</clipPath>
</defs>
</svg>
