<svg width="299" height="323" viewBox="0 0 299 323" fill="none" xmlns="http://www.w3.org/2000/svg">
<g clip-path="url(#clip0_84_133)">
<path d="M209.343 141.497C227.252 141.497 241.77 126.986 241.77 109.085C241.77 91.185 227.252 76.6738 209.343 76.6738C191.434 76.6738 176.917 91.185 176.917 109.085C176.917 126.986 191.434 141.497 209.343 141.497Z" fill="#FF6584"/>
<path d="M298.291 133.252C298.363 133.239 298.417 133.189 298.5 133.201C298.463 133.061 298.416 132.924 298.358 132.791C298.255 132.932 298.149 133.075 298.057 133.201L298.291 133.252Z" fill="white"/>
<path d="M80.8004 185.798C80.9898 192.869 82.1748 199.878 84.3206 206.619C84.3696 206.776 84.421 206.93 84.4724 207.086H97.6094C97.5954 206.946 97.5814 206.79 97.5674 206.619C96.6914 196.554 91.6412 135.294 97.6795 124.817C97.1516 125.667 79.782 153.816 80.8004 185.798Z" fill="#E6E6E6"/>
<path d="M81.7861 206.62C81.8959 206.776 82.0104 206.932 82.1272 207.086H91.9823C91.9075 206.953 91.8211 206.797 91.7207 206.62C90.0926 203.682 85.2737 194.901 80.8004 185.798C75.9932 176.015 71.583 165.861 71.9544 162.186C71.84 163.015 68.5137 188.282 81.7861 206.62Z" fill="#E6E6E6"/>
<path d="M184.194 208.303C184.029 214.468 182.996 220.579 181.126 226.456C181.083 226.592 181.038 226.726 180.993 226.863H169.54C169.552 226.741 169.565 226.604 169.577 226.456C170.34 217.681 174.743 164.273 169.479 155.14C169.939 155.881 185.082 180.421 184.194 208.303Z" fill="#E6E6E6"/>
<path d="M183.335 226.456C183.239 226.592 183.139 226.729 183.038 226.863H174.446C174.511 226.747 174.586 226.611 174.674 226.456C176.093 223.895 180.294 216.24 184.194 208.303C188.385 199.775 192.23 190.922 191.906 187.718C192.006 188.441 194.906 210.469 183.335 226.456Z" fill="#E6E6E6"/>
<path d="M53.2428 26.8081L58.5838 22.5383C54.4346 22.0808 52.7298 24.3426 52.032 26.1329C48.7905 24.7875 45.2617 26.5507 45.2617 26.5507L55.9481 30.4284C55.409 28.9891 54.4705 27.7333 53.2428 26.8081Z" fill="#3F3D56"/>
<path d="M214.11 4.82961L219.451 0.559797C215.302 0.102239 213.597 2.36407 212.899 4.15434C209.658 2.80896 206.129 4.57214 206.129 4.57214L216.815 8.44988C216.276 7.01059 215.338 5.75475 214.11 4.82961Z" fill="#3F3D56"/>
<path d="M292.694 173.681C292.694 177.219 292.57 180.727 292.324 184.208C290.421 211.663 280.897 238.045 264.82 260.388C262.719 263.319 260.514 266.168 258.203 268.934C252.215 276.112 245.566 282.713 238.345 288.65L206.69 270.085L187.764 225.932C187.764 225.932 216.002 168.782 292.643 169.819C292.675 171.101 292.692 172.389 292.694 173.681Z" fill="#3F3D56"/>
<path d="M292.324 184.207C290.867 204.724 285.172 224.717 275.598 242.923C266.023 261.13 252.778 277.155 236.696 289.988L207.288 272.741L190.504 233.583C190.504 233.583 217.701 178.542 292.324 184.207Z" fill="#168888"/>
<path d="M264.82 260.389C262.719 263.319 260.513 266.168 258.202 268.934C242.717 287.531 222.931 302.075 200.556 311.307C196.025 313.174 191.388 314.82 186.645 316.246C152.391 325.351 116.103 323.048 83.2766 309.686C50.812 295.203 24.5773 269.625 9.28449 237.545C7.22929 233.227 5.38112 228.799 3.73999 224.261C32.3622 203.303 88.7618 173.293 150.231 202.454C167.234 210.52 182.417 217.873 195.779 224.512C229.685 241.311 252.251 253.422 264.82 260.389Z" fill="#3F3D56"/>
<path d="M258.202 268.934C242.195 288.109 221.62 302.953 198.371 312.099C175.122 321.245 149.945 324.401 125.156 321.275C100.367 318.149 76.7631 308.842 56.515 294.211C36.267 279.579 20.0253 260.093 9.28442 237.545C33.1888 218.65 88.3232 184.696 148.829 213.396C164.389 220.777 178.281 227.506 190.504 233.582C226.136 251.235 248.086 263.232 258.202 268.934Z" fill="#168888"/>
<path d="M216.011 303.861C211.006 306.634 205.845 309.12 200.556 311.306C182.556 318.72 163.273 322.524 143.805 322.5C120.768 322.491 98.0471 317.143 77.4262 306.878C56.8053 296.613 38.8461 281.709 24.959 263.337C60.5187 259.589 158.813 254.536 216.011 303.861Z" fill="#3F3D56"/>
<path d="M200.556 311.307C172.645 322.778 141.908 325.51 112.409 319.143C82.9107 312.775 56.041 297.607 35.3538 275.645C48.2879 273.746 149.834 260.703 200.556 311.307Z" fill="#168888"/>
<path d="M267.72 91.1541V91.1586C161.407 12.5902 39.6012 67.8908 38.6604 68.3153V68.3108C52.4664 54.5128 68.8601 43.5726 86.9024 36.1168C104.945 28.661 124.281 24.836 143.805 24.861C195.491 24.861 241.026 51.1874 267.72 91.1541Z" fill="#E6E6E6"/>
<path d="M47.1873 176.565C65.1722 173.324 74.3882 140.962 67.7719 104.283C61.1557 67.6038 41.2126 40.4968 23.2278 43.7379C5.24292 46.979 -3.97314 79.3409 2.64311 116.02C9.25936 152.699 29.2025 179.806 47.1873 176.565Z" fill="#3F3D56"/>
<path d="M51.8093 219.402C50.7431 138.836 23.7744 63.2302 23.5022 62.4766L21.0427 63.3633C21.3136 64.1133 48.1343 139.323 49.195 219.438L51.8093 219.402Z" fill="#168888"/>
<path d="M3.96166 101.037L3.15698 103.524L35.4438 113.961L36.2485 111.474L3.96166 101.037Z" fill="#168888"/>
<path d="M64.696 98.236L38.0938 119.294L39.7173 121.344L66.3195 100.285L64.696 98.236Z" fill="#168888"/>
<path d="M133.665 164.95C153.44 164.95 169.471 132.256 169.471 91.9259C169.471 51.5956 153.44 18.9014 133.665 18.9014C113.89 18.9014 97.8594 51.5956 97.8594 91.9259C97.8594 132.256 113.89 164.95 133.665 164.95Z" fill="#3F3D56"/>
<path d="M130.359 211.455C144.699 125.454 130.503 39.764 130.358 38.9092L127.569 39.3815C127.713 40.2322 141.828 125.472 127.568 210.991L130.359 211.455Z" fill="#168888"/>
<path d="M102.141 76.2237L100.807 78.7178L133.185 96.0283L134.519 93.5342L102.141 76.2237Z" fill="#168888"/>
<path d="M167.357 84.895L134.982 102.215L136.318 104.709L168.692 87.3887L167.357 84.895Z" fill="#168888"/>
<path d="M289.195 141.461C276.058 134.088 262.332 127.816 248.159 122.708C169.792 94.3635 92.0821 105.288 61.665 145.852C85.3365 96.1575 169.801 80.5315 255.037 111.359C264.958 114.944 274.667 119.089 284.116 123.776C286.175 129.56 287.871 135.466 289.195 141.461Z" fill="#E6E6E6"/>
<path d="M183.355 61.4922L188.696 57.2224C184.546 56.7648 182.842 59.0267 182.144 60.8169C178.902 59.4716 175.374 61.2347 175.374 61.2347L186.06 65.1125C185.521 63.6732 184.582 62.4174 183.355 61.4922Z" fill="#3F3D56"/>
</g>
<defs>
<clipPath id="clip0_84_133">
<rect width="298" height="322" fill="white" transform="translate(0.5 0.5)"/>
</clipPath>
</defs>
</svg>
