<svg width="411" height="259" viewBox="0 0 411 259" fill="none" xmlns="http://www.w3.org/2000/svg">
<g clip-path="url(#clip0_84_163)">
<path d="M316.336 195.631C333.242 153.325 328.128 106.085 306.324 69.8042L78.0849 101.437L296.811 55.8093C204.627 -59.2547 25.2049 17.0659 42.5003 162.342L316.336 195.631Z" fill="#E6E6E6"/>
<path d="M326.402 148.865H35.6221V239.498H326.402V148.865Z" fill="#168888"/>
<path d="M116.718 137.812C119.327 139.84 120.281 140.495 120.836 140.412C147.755 148.258 124.157 157.454 111.078 141.845L116.718 137.812Z" fill="#FFB8B8"/>
<path d="M27.8926 220.708V239.13L41.143 238.393L37.4626 219.234L27.8926 220.708Z" fill="#FFB8B8"/>
<path d="M101.508 220.708V239.13L88.2568 238.393L91.9377 219.234L101.508 220.708Z" fill="#FFB8B8"/>
<path d="M61.0194 125.654L80.8954 124.917C126.747 173.032 109.407 162.058 108.133 228.077L83.84 220.709L88.9931 175.024C88.9957 175.022 90.3524 174.117 89.2247 174.096C82.1718 176.522 77.0258 146.484 61.7555 149.971C44.3787 149.139 41.5498 174.941 34.5179 175.024L39.671 220.709L15.378 228.077C12.6581 155.529 -0.672437 171.918 42.6156 124.917L61.0194 125.654Z" fill="#2F2E41"/>
<path d="M31.5734 233.236C31.5734 233.236 28.6288 227.341 24.9481 230.288C21.2673 233.236 12.4335 242.078 12.4335 242.078C12.4335 242.078 -8.91487 251.657 4.33585 257.552C17.5866 263.447 28.6288 249.446 28.6288 249.446C41.2499 246.812 48.5299 245.126 41.8367 231.345C38.0367 232.991 32.6591 234.897 31.5734 233.236Z" fill="#2F2E41"/>
<path d="M97.8268 233.236C97.8268 233.236 100.771 227.341 104.452 230.288C108.133 233.236 116.967 242.078 116.967 242.078C116.967 242.078 138.315 251.657 125.064 257.552C111.814 263.447 100.771 249.446 100.771 249.446C88.1503 246.812 80.8704 245.126 87.5636 231.345C91.3636 232.991 96.7411 234.897 97.8268 233.236Z" fill="#2F2E41"/>
<path d="M80.8954 42.3898C79.8005 60.7331 54.7898 59.1182 54.394 42.3897C55.4888 24.0465 80.4995 25.6614 80.8954 42.3898Z" fill="#FFB8B8"/>
<path d="M61.7559 51.9689C68.1958 71.4514 52.9914 60.8444 74.2704 76.2851L82.3681 60.0743C82.3681 60.0743 76.4789 57.8637 77.215 49.7583L61.7559 51.9689Z" fill="#FFB8B8"/>
<path d="M101.508 63.0215L79.5634 58.0078C80.1806 71.2522 66.0599 68.5866 63.596 61.9243L42.6157 74.0743C51.4217 106.903 49.19 108.258 37.4626 129.338C32.987 133.429 39.6804 135.774 45.5074 133.535C49.9517 130.79 52.2088 128.35 56.971 128.971C79.4737 133.661 98.2068 134.768 101.171 132.935C102.232 131.415 101.141 63.2853 101.508 63.0215Z" fill="#575A89"/>
<path d="M95.6187 64.4955C96.3548 64.4955 100.147 62.7108 100.147 62.7108C111.179 62.5246 118.583 136.806 119.175 138.918L111.814 144.076L100.036 113.865L95.6187 64.4955Z" fill="#575A89"/>
<path d="M44.0879 150.707C44.4643 153.488 45.1048 184.718 56.2813 170.13C57.7477 159.487 52.7623 156.309 51.4494 149.233L44.0879 150.707Z" fill="#FFB8B8"/>
<path d="M47.0325 74.0743L44.7769 72.8226C38.7298 72.6237 40.6356 88.646 38.0772 100.38C35.9871 114.049 36.5822 129.122 39.0344 149.273C39.2488 156.668 52.4809 152.009 54.394 151.444C54.394 151.444 49.9771 121.233 52.1855 116.075C54.394 110.917 47.0325 74.0743 47.0325 74.0743Z" fill="#575A89"/>
<path d="M80.3162 29.5319C78.2719 26.2091 75.072 23.7605 71.3323 22.6574L68.5856 24.8569L69.6535 22.2914C68.7555 22.1543 67.8466 22.1017 66.9387 22.1344L64.4674 25.3149L65.4902 22.2433C54.8856 23.3831 48.6115 35.5684 54.1169 44.0965C54.9661 41.4842 55.9968 39.033 56.8461 36.4207C57.5135 36.5117 58.19 36.515 58.8583 36.4305L59.8916 34.0173L60.1802 36.3284C63.3826 36.0491 68.1327 35.436 71.1687 34.8742L70.8735 33.1013L72.6398 34.5746C73.57 34.3602 74.1223 34.1659 74.0766 34.0173C76.3346 37.6609 78.5719 39.9882 80.8298 43.6318C81.687 38.4923 83.2001 34.2203 80.3162 29.5319Z" fill="#2F2E41"/>
<path d="M308.998 159.798H244.779V190.29H308.998V159.798Z" fill="white"/>
<path d="M296.854 166.186H256.923V169.842H296.854V166.186Z" fill="#E6E6E6"/>
<path d="M296.854 173.216H256.923V176.872H296.854V173.216Z" fill="#E6E6E6"/>
<path d="M296.854 180.247H256.923V183.903H296.854V180.247Z" fill="#E6E6E6"/>
<path d="M188.855 167.041L186.766 163.42L184.678 159.798L182.589 163.42L180.5 167.041H182.744V177.528H186.611V167.041H188.855Z" fill="white"/>
<path d="M330.397 241.66C339.897 241.66 347.598 233.952 347.598 224.443C347.598 214.935 339.897 207.227 330.397 207.227C320.898 207.227 313.197 214.935 313.197 224.443C313.197 233.952 320.898 241.66 330.397 241.66Z" fill="#3F3D56"/>
<path d="M333.525 232.074C337.735 232.074 341.147 228.658 341.147 224.444C341.147 220.23 337.735 216.813 333.525 216.813C329.315 216.813 325.902 220.23 325.902 224.444C325.902 228.658 329.315 232.074 333.525 232.074Z" fill="#E6E6E6"/>
<path d="M319.55 236.476L357.078 252.127L355.905 255.844L334.307 253.399L297.756 237.16L318.084 239.508L319.55 236.476Z" fill="#3F3D56"/>
<path d="M352.722 251.422L399.396 98.1703L410.762 77.9662L410.802 77.7713C410.838 77.593 411.673 73.37 409.62 70.3117C409.103 69.5515 408.434 68.9061 407.657 68.4158C406.879 67.9255 406.009 67.6008 405.101 67.4619C398.827 66.2846 384.794 65.7045 384.2 65.6804L384.087 65.6758L383.976 65.691C383.593 65.7433 374.624 67.0556 372.597 74.8949L362.839 92.6706L362.801 92.7971L318.627 238.16L321.058 238.9L365.193 93.6637L374.983 75.8281L375.023 75.6642C376.457 69.765 383.311 68.3849 384.222 68.227C385.656 68.2882 398.846 68.8757 404.632 69.9617C405.207 70.0401 405.759 70.237 406.253 70.54C406.748 70.8429 407.174 71.2454 407.506 71.7218C408.771 73.5968 408.454 76.3575 408.342 77.0833L397.046 97.1636L397.006 97.2961L350.292 250.68L352.722 251.422Z" fill="#3F3D56"/>
<path d="M359.546 107.367L359.095 109.87L392.803 115.964L393.255 113.461L359.546 107.367Z" fill="#3F3D56"/>
<path d="M353.251 128.182L352.743 130.674L386.211 137.512L386.719 135.02L353.251 128.182Z" fill="#3F3D56"/>
<path d="M342.041 165.408L341.342 167.854L374.017 177.212L374.716 174.767L342.041 165.408Z" fill="#3F3D56"/>
<path d="M364.139 237.562L365.065 235.193L333.349 222.763L331.792 205.884L361.394 216.951L370.984 230.84L373.075 229.394L363.03 214.847L328.89 202.083L330.963 224.559L364.139 237.562Z" fill="#3F3D56"/>
<path d="M375.157 258.094C384.656 258.094 392.357 250.386 392.357 240.878C392.357 231.369 384.656 223.661 375.157 223.661C365.657 223.661 357.957 231.369 357.957 240.878C357.957 250.386 365.657 258.094 375.157 258.094Z" fill="#3F3D56"/>
<path d="M379.652 249.29C383.862 249.29 387.275 245.874 387.275 241.66C387.275 237.446 383.862 234.03 379.652 234.03C375.442 234.03 372.029 237.446 372.029 241.66C372.029 245.874 375.442 249.29 379.652 249.29Z" fill="#E6E6E6"/>
</g>
<defs>
<clipPath id="clip0_84_163">
<rect width="411" height="259" fill="white"/>
</clipPath>
</defs>
</svg>
