<svg width="96" height="35" viewBox="0 0 96 35" fill="none" xmlns="http://www.w3.org/2000/svg">
<path d="M0.570039 29.6323C0.366987 30.1459 0.618738 30.7269 1.13234 30.93L9.50199 34.2389C10.0156 34.4419 10.5966 34.1902 10.7996 33.6766C11.0027 33.163 10.7509 32.582 10.2373 32.379L2.79762 29.4377L5.73889 21.998C5.94194 21.4844 5.69019 20.9034 5.17659 20.7004C4.66299 20.4973 4.08202 20.7491 3.87897 21.2627L0.570039 29.6323ZM93.5742 0.121875C90.0236 8.81485 85.3617 13.6684 79.7368 16.4472C74.0608 19.2512 67.2959 20.001 59.4059 20.2505C43.6965 20.7472 23.8234 19.2367 1.10239 29.0824L1.89761 30.9176C24.1766 21.2633 43.5535 22.7528 59.4691 22.2495C67.3916 21.999 74.5329 21.2488 80.6226 18.2403C86.7633 15.2066 91.7264 9.93515 95.4258 0.878125L93.5742 0.121875Z" fill="#168888"/>
</svg>
