<svg width="48" height="48" viewBox="0 0 48 48" fill="none" xmlns="http://www.w3.org/2000/svg">
<path d="M39 9C37.3659 10.5639 35.4221 11.7678 33.294 12.534C31.05 12.93 24.84 10.05 21.78 12.99C21.27 13.5 20.64 14.01 19.98 14.52C18.54 13.89 16.32 12.93 14.7 12C13.08 11.07 9 9 9 9L0 19.5C0 19.5 2.22 22.5 3.6 24.48C4.5 25.8 5.61 27.81 6.33 29.16L5.31 30.36C5.06574 30.8452 4.97785 31.3942 5.05844 31.9315C5.13902 32.4687 5.38412 32.9678 5.76 33.36C6.19386 33.6853 6.72175 33.8606 7.264 33.8595C7.80625 33.8584 8.33344 33.681 8.766 33.354C8.60561 33.5418 8.48422 33.7596 8.40892 33.9949C8.33362 34.2301 8.30591 34.4779 8.32741 34.7239C8.34892 34.97 8.4192 35.2092 8.53416 35.4278C8.64912 35.6464 8.80646 35.8399 8.997 35.997C9.45511 36.2645 9.9763 36.405 10.5068 36.404C11.0373 36.4029 11.558 36.2604 12.015 35.991C11.6722 36.4182 11.4847 36.9492 11.483 37.4969C11.4814 38.0447 11.6658 38.5767 12.006 39.006C12.4482 39.1591 12.9199 39.2079 13.3841 39.1486C13.8483 39.0892 14.2925 38.9234 14.682 38.664C14.4879 39.1233 14.4377 39.6306 14.5378 40.1191C14.638 40.6075 14.8839 41.0541 15.243 41.4C15.7503 41.6254 16.3066 41.7184 16.8596 41.6701C17.4127 41.6218 17.9444 41.4339 18.405 41.124L19.953 39.723C21.369 41.133 23.322 42.006 25.479 42.006L25.662 42.003C26.3728 41.9423 27.0538 41.6894 27.6319 41.2714C28.2101 40.8534 28.6636 40.286 28.944 39.63C29.382 39.798 29.88 39.912 30.408 39.912C31.116 39.912 31.773 39.708 32.328 39.357C34.083 38.196 33.663 37.296 33.663 37.296C34.2871 37.5646 34.9802 37.6283 35.6428 37.4779C36.3054 37.3275 36.9031 36.9707 37.35 36.459C37.8144 35.9839 38.1072 35.3676 38.1822 34.7075C38.2572 34.0474 38.11 33.3811 37.764 32.814C37.783 32.8253 37.805 32.8306 37.827 32.829C39.09 32.829 40.188 32.133 40.761 31.107C41.043 30.3778 41.1383 29.5897 41.0382 28.8143C40.9381 28.0388 40.6459 27.3007 40.188 26.667L40.197 26.682C42.657 26.202 42.567 24.972 43.767 23.172C44.9032 21.7031 46.317 20.4718 47.928 19.548L39 9ZM38.85 30.18C37.53 31.5 36.51 30.93 34.26 29.22C32.01 27.51 27.54 24.3 27.54 24.3C27.723 25.215 28.146 26.01 28.743 26.643C29.7 27.72 32.55 30.18 33.9 31.44C34.74 32.22 36.9 33.78 35.64 34.98C34.38 36.18 33.39 34.98 31.32 33.3C29.25 31.62 24.63 27.48 24.63 27.48C24.6046 27.8768 24.6636 28.2746 24.8032 28.6469C24.9428 29.0193 25.1599 29.3577 25.44 29.64C25.95 30.24 28.8 33 30 34.26C31.2 35.52 32.25 36.27 31.23 37.26C30.21 38.25 28.14 36.69 27 35.52C25.23 33.81 21.72 30.63 21.72 30.63L21.717 30.789C21.717 31.641 22.011 32.421 22.506 33.039C23.37 34.173 25.05 35.643 26.07 36.783C27.09 37.923 27.69 38.883 26.07 39.783C24.45 40.683 22.05 38.463 21 37.383V37.377C21.0002 37.0807 20.8937 36.7942 20.7 36.57C20.3412 36.2376 19.8984 36.0094 19.4194 35.91C18.9405 35.8106 18.4435 35.8438 17.982 36.006C18.1719 35.836 18.3241 35.6282 18.4288 35.3958C18.5336 35.1635 18.5886 34.9118 18.5903 34.657C18.592 34.4021 18.5403 34.1498 18.4387 33.9161C18.337 33.6824 18.1876 33.4725 18 33.3C17.6062 33.0016 17.1256 32.8404 16.6315 32.841C16.1374 32.8415 15.6571 33.0038 15.264 33.303C15.4628 33.1131 15.6162 32.8809 15.713 32.6236C15.8097 32.3662 15.8472 32.0904 15.8227 31.8166C15.7982 31.5428 15.7123 31.278 15.5715 31.0419C15.4306 30.8059 15.2383 30.6046 15.009 30.453C14.4719 30.1156 13.8418 29.957 13.209 30.0001C12.5762 30.0432 11.9733 30.2858 11.487 30.693C11.812 30.2991 11.9723 29.7948 11.9343 29.2855C11.8962 28.7762 11.6629 28.3013 11.283 27.96C10.8108 27.5205 10.2092 27.2456 9.56785 27.1764C8.92654 27.1072 8.28005 27.2474 7.725 27.576L5.73 24.207C4.35 22.017 2.73 19.737 2.73 19.737L9.57 11.427C9.57 11.427 12 12.927 14.01 14.067C15 14.637 16.71 15.387 18 15.987C15.96 17.517 14.25 18.987 14.76 20.007C15.6689 20.6594 16.755 21.0193 17.8736 21.0386C18.9923 21.0579 20.0902 20.7357 21.021 20.115C22.2145 19.3216 23.6169 18.9008 25.05 18.906C26.091 18.906 27.081 19.122 27.978 19.515C29.64 20.637 32.7 23.397 35.49 25.137C39 27.687 39.69 29.337 38.85 30.177V30.18Z" fill="#168888"/>
</svg>
