<svg width="48" height="48" viewBox="0 0 48 48" fill="none" xmlns="http://www.w3.org/2000/svg">
<path d="M37.3601 29.7201H32.8801C32.1514 27.6571 30.8464 25.8463 29.1198 24.5024C27.3933 23.1585 25.3176 22.338 23.1388 22.138C20.96 21.938 18.7696 22.367 16.8273 23.3741C14.8849 24.3812 13.2721 25.9242 12.1801 27.8201H11.6001C10.4371 27.764 9.27492 27.9445 8.18386 28.3509C7.0928 28.7573 6.09561 29.3809 5.25273 30.1841C4.40985 30.9873 3.73883 31.9532 3.28034 33.0234C2.82186 34.0936 2.58545 35.2458 2.58545 36.4101C2.58545 37.5744 2.82186 38.7265 3.28034 39.7967C3.73883 40.8669 4.40985 41.8329 5.25273 42.6361C6.09561 43.4392 7.0928 44.0629 8.18386 44.4693C9.27492 44.8756 10.4371 45.0562 11.6001 45.0001H37.3601C39.3863 45.0001 41.3296 44.1952 42.7623 42.7624C44.1951 41.3296 45.0001 39.3863 45.0001 37.3601C45.0001 35.3338 44.1951 33.3906 42.7623 31.9578C41.3296 30.525 39.3863 29.7201 37.3601 29.7201Z" stroke="#168888" stroke-width="3" stroke-miterlimit="10"/>
<path d="M18.28 3H22C24.5302 3 26.9567 4.0051 28.7458 5.7942C30.5349 7.5833 31.54 10.0098 31.54 12.54H27.82C25.2899 12.54 22.8633 11.5349 21.0742 9.7458C19.2851 7.9567 18.28 5.53017 18.28 3Z" stroke="#168888" stroke-width="3" stroke-miterlimit="10"/>
<path d="M35.46 12.54H31.64C31.64 10.0099 32.6451 7.58334 34.4342 5.79424C36.2233 4.00514 38.6498 3.00004 41.18 3.00004H45C45 5.5302 43.9949 7.95674 42.2058 9.74584C40.4167 11.5349 37.9902 12.54 35.46 12.54Z" stroke="#168888" stroke-width="3" stroke-miterlimit="10"/>
<path d="M31.6399 27.82V12.54" stroke="#168888" stroke-width="3" stroke-miterlimit="10"/>
</svg>
