<svg width="298" height="322" viewBox="0 0 298 322" fill="none" xmlns="http://www.w3.org/2000/svg">
<g clip-path="url(#clip0_67_355)">
<path d="M208.843 140.997C226.752 140.997 241.27 126.486 241.27 108.585C241.27 90.685 226.752 76.1738 208.843 76.1738C190.934 76.1738 176.417 90.685 176.417 108.585C176.417 126.486 190.934 140.997 208.843 140.997Z" fill="#FF6584"/>
<path d="M297.791 132.752C297.863 132.739 297.917 132.689 298 132.701C297.963 132.561 297.916 132.424 297.858 132.291C297.755 132.432 297.649 132.575 297.557 132.701L297.791 132.752Z" fill="white"/>
<path d="M80.3004 185.298C80.4898 192.369 81.6748 199.378 83.8206 206.119C83.8696 206.276 83.921 206.43 83.9724 206.586H97.1094C97.0954 206.446 97.0814 206.29 97.0674 206.119C96.1914 196.054 91.1412 134.794 97.1795 124.317C96.6516 125.167 79.282 153.316 80.3004 185.298Z" fill="#E6E6E6"/>
<path d="M81.2861 206.12C81.3959 206.276 81.5104 206.432 81.6272 206.586H91.4823C91.4075 206.453 91.3211 206.297 91.2207 206.12C89.5926 203.182 84.7737 194.401 80.3004 185.298C75.4932 175.515 71.083 165.361 71.4544 161.686C71.34 162.515 68.0137 187.782 81.2861 206.12Z" fill="#E6E6E6"/>
<path d="M183.694 207.803C183.529 213.968 182.496 220.079 180.625 225.956C180.583 226.092 180.538 226.226 180.493 226.363H169.04C169.052 226.241 169.064 226.104 169.077 225.956C169.84 217.181 174.243 163.773 168.979 154.64C169.439 155.381 184.582 179.921 183.694 207.803Z" fill="#E6E6E6"/>
<path d="M182.835 225.956C182.739 226.092 182.639 226.229 182.538 226.363H173.946C174.011 226.247 174.086 226.111 174.174 225.956C175.593 223.395 179.794 215.74 183.694 207.803C187.885 199.275 191.73 190.422 191.406 187.218C191.506 187.941 194.406 209.969 182.835 225.956Z" fill="#E6E6E6"/>
<path d="M52.7428 26.3081L58.0838 22.0383C53.9346 21.5808 52.2298 23.8426 51.532 25.6329C48.2905 24.2875 44.7617 26.0507 44.7617 26.0507L55.4481 29.9284C54.909 28.4891 53.9705 27.2333 52.7428 26.3081Z" fill="#3F3D56"/>
<path d="M213.61 4.32961L218.951 0.059797C214.802 -0.397761 213.097 1.86407 212.399 3.65434C209.158 2.30896 205.629 4.07214 205.629 4.07214L216.315 7.94988C215.776 6.51059 214.838 5.25475 213.61 4.32961Z" fill="#3F3D56"/>
<path d="M292.193 173.181C292.193 176.719 292.07 180.227 291.823 183.708C289.921 211.163 280.397 237.545 264.32 259.888C262.219 262.819 260.013 265.668 257.702 268.434C251.714 275.612 245.066 282.213 237.844 288.15L206.19 269.585L187.263 225.432C187.263 225.432 215.502 168.282 292.143 169.319C292.175 170.601 292.192 171.889 292.193 173.181Z" fill="#3F3D56"/>
<path d="M291.823 183.707C290.367 204.224 284.672 224.217 275.098 242.423C265.523 260.63 252.277 276.655 236.196 289.488L206.788 272.241L190.004 233.083C190.004 233.083 217.201 178.042 291.823 183.707Z" fill="#168888"/>
<path d="M264.32 259.889C262.219 262.819 260.013 265.668 257.702 268.434C242.217 287.031 222.431 301.575 200.056 310.807C195.525 312.674 190.888 314.32 186.145 315.746C151.891 324.851 115.603 322.548 82.7766 309.186C50.312 294.703 24.0773 269.125 8.78449 237.045C6.72929 232.727 4.88112 228.299 3.23999 223.761C31.8622 202.803 88.2618 172.793 149.731 201.954C166.734 210.02 181.917 217.373 195.279 224.012C229.185 240.811 251.751 252.922 264.32 259.889Z" fill="#3F3D56"/>
<path d="M257.702 268.434C241.695 287.609 221.12 302.453 197.871 311.599C174.622 320.745 149.445 323.901 124.656 320.775C99.8673 317.649 76.2631 308.342 56.015 293.711C35.767 279.079 19.5253 259.593 8.78442 237.045C32.6888 218.15 87.8232 184.196 148.329 212.896C163.889 220.277 177.781 227.006 190.004 233.082C225.636 250.735 247.586 262.732 257.702 268.434Z" fill="#168888"/>
<path d="M215.511 303.361C210.505 306.134 205.345 308.62 200.056 310.806C182.056 318.22 162.773 322.024 143.305 322C120.268 321.991 97.547 316.643 76.9261 306.378C56.3052 296.113 38.346 281.209 24.4589 262.837C60.0186 259.089 158.312 254.036 215.511 303.361Z" fill="#3F3D56"/>
<path d="M200.056 310.807C172.145 322.278 141.407 325.01 111.909 318.643C82.4105 312.275 55.5408 297.107 34.8536 275.145C47.7877 273.246 149.333 260.203 200.056 310.807Z" fill="#168888"/>
<path d="M267.22 90.6541V90.6586C160.907 12.0902 39.1011 67.3908 38.1603 67.8153V67.8108C51.9663 54.0128 68.36 43.0726 86.4023 35.6168C104.445 28.161 123.781 24.336 143.305 24.361C194.991 24.361 240.525 50.6874 267.22 90.6541Z" fill="#E6E6E6"/>
<path d="M46.6873 176.065C64.6722 172.824 73.8882 140.462 67.2719 103.783C60.6557 67.1038 40.7126 39.9968 22.7278 43.2379C4.74292 46.479 -4.47314 78.8409 2.14311 115.52C8.75936 152.199 28.7025 179.306 46.6873 176.065Z" fill="#3F3D56"/>
<path d="M51.3093 218.902C50.2431 138.336 23.2744 62.7302 23.0022 61.9766L20.5427 62.8633C20.8136 63.6133 47.6343 138.823 48.695 218.938L51.3093 218.902Z" fill="#168888"/>
<path d="M3.46154 100.537L2.65686 103.024L34.9437 113.461L35.7484 110.974L3.46154 100.537Z" fill="#168888"/>
<path d="M64.1958 97.736L37.5936 118.794L39.2172 120.844L65.8194 99.7851L64.1958 97.736Z" fill="#168888"/>
<path d="M133.165 164.45C152.94 164.45 168.971 131.756 168.971 91.4259C168.971 51.0956 152.94 18.4014 133.165 18.4014C113.39 18.4014 97.3593 51.0956 97.3593 91.4259C97.3593 131.756 113.39 164.45 133.165 164.45Z" fill="#3F3D56"/>
<path d="M129.859 210.955C144.199 124.954 130.003 39.264 129.858 38.4092L127.068 38.8815C127.213 39.7322 141.328 124.972 127.068 210.491L129.859 210.955Z" fill="#168888"/>
<path d="M101.641 75.7237L100.307 78.2178L132.685 95.5283L134.02 93.0342L101.641 75.7237Z" fill="#168888"/>
<path d="M166.857 84.395L134.483 101.715L135.818 104.209L168.192 86.8887L166.857 84.395Z" fill="#168888"/>
<path d="M288.695 140.961C275.558 133.588 261.832 127.316 247.659 122.208C169.292 93.8635 91.582 104.788 61.1649 145.352C84.8364 95.6575 169.301 80.0315 254.537 110.859C264.458 114.444 274.167 118.589 283.616 123.276C285.675 129.06 287.371 134.966 288.695 140.961Z" fill="#E6E6E6"/>
<path d="M182.855 60.9922L188.196 56.7224C184.046 56.2648 182.342 58.5267 181.644 60.3169C178.402 58.9716 174.874 60.7347 174.874 60.7347L185.56 64.6125C185.021 63.1732 184.082 61.9174 182.855 60.9922Z" fill="#3F3D56"/>
</g>
<defs>
<clipPath id="clip0_67_355">
<rect width="298" height="322" fill="white"/>
</clipPath>
</defs>
</svg>
