<svg width="411" height="259" viewBox="0 0 411 259" fill="none" xmlns="http://www.w3.org/2000/svg">
<g clip-path="url(#clip0_67_513)">
<path d="M316.336 195.631C333.242 153.325 328.128 106.085 306.324 69.8042L78.085 101.437L296.811 55.8093C204.627 -59.2547 25.205 17.0659 42.5004 162.342L316.336 195.631Z" fill="#E6E6E6"/>
<path d="M326.402 148.865H35.6223V239.498H326.402V148.865Z" fill="#168888"/>
<path d="M116.718 137.812C119.327 139.84 120.281 140.495 120.836 140.412C147.755 148.258 124.157 157.454 111.078 141.845L116.718 137.812Z" fill="#FFB8B8"/>
<path d="M27.8928 220.708V239.13L41.1433 238.393L37.4629 219.234L27.8928 220.708Z" fill="#FFB8B8"/>
<path d="M101.508 220.708V239.13L88.2568 238.393L91.9377 219.234L101.508 220.708Z" fill="#FFB8B8"/>
<path d="M61.0195 125.654L80.8956 124.917C126.747 173.032 109.407 162.058 108.133 228.077L83.8402 220.709L88.9932 175.024C88.9958 175.022 90.3525 174.117 89.2248 174.096C82.1719 176.522 77.0259 146.484 61.7556 149.971C44.3788 149.139 41.5499 174.941 34.518 175.024L39.6711 220.709L15.3781 228.077C12.6582 155.529 -0.672315 171.918 42.6157 124.917L61.0195 125.654Z" fill="#2F2E41"/>
<path d="M31.5734 233.236C31.5734 233.236 28.6288 227.341 24.9481 230.288C21.2673 233.236 12.4335 242.078 12.4335 242.078C12.4335 242.078 -8.91487 251.657 4.33585 257.552C17.5866 263.447 28.6288 249.446 28.6288 249.446C41.2499 246.812 48.5299 245.126 41.8367 231.345C38.0367 232.991 32.6591 234.897 31.5734 233.236Z" fill="#2F2E41"/>
<path d="M97.8271 233.236C97.8271 233.236 100.772 227.341 104.452 230.288C108.133 233.236 116.967 242.078 116.967 242.078C116.967 242.078 138.315 251.657 125.065 257.552C111.814 263.447 100.772 249.446 100.772 249.446C88.1505 246.812 80.8706 245.126 87.5638 231.345C91.3638 232.991 96.7414 234.897 97.8271 233.236Z" fill="#2F2E41"/>
<path d="M80.8955 42.3898C79.8006 60.7331 54.7899 59.1182 54.3942 42.3897C55.4889 24.0465 80.4996 25.6614 80.8955 42.3898Z" fill="#FFB8B8"/>
<path d="M61.7556 51.9689C68.1956 71.4514 52.9911 60.8444 74.2702 76.2851L82.3678 60.0743C82.3678 60.0743 76.4786 57.8637 77.2148 49.7583L61.7556 51.9689Z" fill="#FFB8B8"/>
<path d="M101.508 63.0215L79.5634 58.0078C80.1806 71.2522 66.0599 68.5866 63.596 61.9243L42.6157 74.0743C51.4217 106.903 49.19 108.258 37.4626 129.338C32.987 133.429 39.6804 135.774 45.5074 133.535C49.9517 130.79 52.2088 128.35 56.971 128.971C79.4737 133.661 98.2068 134.768 101.171 132.935C102.232 131.415 101.141 63.2853 101.508 63.0215Z" fill="#575A89"/>
<path d="M95.6185 64.4955C96.3547 64.4955 100.147 62.7108 100.147 62.7108C111.179 62.5246 118.583 136.806 119.175 138.918L111.814 144.076L100.035 113.865L95.6185 64.4955Z" fill="#575A89"/>
<path d="M44.088 150.707C44.4644 153.488 45.1049 184.718 56.2815 170.13C57.7478 159.487 52.7624 156.309 51.4495 149.233L44.088 150.707Z" fill="#FFB8B8"/>
<path d="M47.0326 74.0743L44.777 72.8226C38.7299 72.6237 40.6357 88.646 38.0773 100.38C35.9872 114.049 36.5824 129.122 39.0345 149.273C39.2489 156.668 52.4811 152.009 54.3941 151.444C54.3941 151.444 49.9772 121.233 52.1856 116.075C54.3941 110.917 47.0326 74.0743 47.0326 74.0743Z" fill="#575A89"/>
<path d="M80.3163 29.5319C78.272 26.2091 75.0721 23.7605 71.3325 22.6574L68.5857 24.8569L69.6536 22.2914C68.7556 22.1543 67.8467 22.1017 66.9389 22.1344L64.4675 25.3149L65.4904 22.2433C54.8858 23.3831 48.6116 35.5684 54.117 44.0965C54.9662 41.4842 55.997 39.033 56.8462 36.4207C57.5137 36.5117 58.1901 36.515 58.8584 36.4305L59.8917 34.0173L60.1803 36.3284C63.3828 36.0491 68.1328 35.436 71.1689 34.8742L70.8737 33.1013L72.6399 34.5746C73.5701 34.3602 74.1224 34.1659 74.0767 34.0173C76.3347 37.6609 78.572 39.9882 80.8299 43.6318C81.6871 38.4923 83.2002 34.2203 80.3163 29.5319Z" fill="#2F2E41"/>
<path d="M308.998 159.798H244.78V190.29H308.998V159.798Z" fill="white"/>
<path d="M296.854 166.186H256.923V169.842H296.854V166.186Z" fill="#E6E6E6"/>
<path d="M296.854 173.216H256.923V176.872H296.854V173.216Z" fill="#E6E6E6"/>
<path d="M296.854 180.247H256.923V183.903H296.854V180.247Z" fill="#E6E6E6"/>
<path d="M188.855 167.041L186.766 163.42L184.678 159.798L182.589 163.42L180.5 167.041H182.744V177.528H186.611V167.041H188.855Z" fill="white"/>
<path d="M330.397 241.66C339.897 241.66 347.598 233.952 347.598 224.443C347.598 214.935 339.897 207.227 330.397 207.227C320.898 207.227 313.197 214.935 313.197 224.443C313.197 233.952 320.898 241.66 330.397 241.66Z" fill="#3F3D56"/>
<path d="M333.525 232.074C337.735 232.074 341.147 228.658 341.147 224.444C341.147 220.23 337.735 216.813 333.525 216.813C329.315 216.813 325.902 220.23 325.902 224.444C325.902 228.658 329.315 232.074 333.525 232.074Z" fill="#E6E6E6"/>
<path d="M319.55 236.476L357.077 252.127L355.904 255.844L334.306 253.399L297.756 237.16L318.083 239.508L319.55 236.476Z" fill="#3F3D56"/>
<path d="M352.722 251.422L399.395 98.1703L410.762 77.9662L410.802 77.7713C410.838 77.593 411.673 73.37 409.62 70.3117C409.103 69.5515 408.434 68.9061 407.657 68.4158C406.879 67.9255 406.009 67.6008 405.1 67.4619C398.827 66.2846 384.793 65.7045 384.199 65.6804L384.087 65.6758L383.976 65.691C383.593 65.7433 374.624 67.0556 372.596 74.8949L362.839 92.6706L362.8 92.7971L318.627 238.16L321.058 238.9L365.193 93.6637L374.983 75.8281L375.023 75.6642C376.457 69.765 383.311 68.3849 384.222 68.227C385.656 68.2882 398.846 68.8757 404.632 69.9617C405.206 70.0401 405.758 70.237 406.253 70.54C406.748 70.8429 407.174 71.2454 407.505 71.7218C408.77 73.5968 408.454 76.3575 408.342 77.0833L397.046 97.1636L397.005 97.2961L350.291 250.68L352.722 251.422Z" fill="#3F3D56"/>
<path d="M359.546 107.367L359.094 109.87L392.803 115.964L393.255 113.461L359.546 107.367Z" fill="#3F3D56"/>
<path d="M353.251 128.182L352.743 130.674L386.211 137.512L386.719 135.02L353.251 128.182Z" fill="#3F3D56"/>
<path d="M342.041 165.408L341.342 167.854L374.017 177.212L374.716 174.767L342.041 165.408Z" fill="#3F3D56"/>
<path d="M364.139 237.562L365.065 235.193L333.35 222.763L331.792 205.884L361.394 216.951L370.984 230.84L373.075 229.394L363.031 214.847L328.89 202.083L330.964 224.559L364.139 237.562Z" fill="#3F3D56"/>
<path d="M375.157 258.094C384.656 258.094 392.357 250.386 392.357 240.878C392.357 231.369 384.656 223.661 375.157 223.661C365.657 223.661 357.957 231.369 357.957 240.878C357.957 250.386 365.657 258.094 375.157 258.094Z" fill="#3F3D56"/>
<path d="M379.652 249.29C383.862 249.29 387.275 245.874 387.275 241.66C387.275 237.446 383.862 234.03 379.652 234.03C375.442 234.03 372.03 237.446 372.03 241.66C372.03 245.874 375.442 249.29 379.652 249.29Z" fill="#E6E6E6"/>
</g>
<defs>
<clipPath id="clip0_67_513">
<rect width="411" height="259" fill="white"/>
</clipPath>
</defs>
</svg>
