<svg width="175" height="303" viewBox="0 0 175 303" fill="none" xmlns="http://www.w3.org/2000/svg">
<g clip-path="url(#clip0_67_418)">
<path d="M24.4832 302.314C24.4832 302.695 24.7885 303 25.1688 303H174.314C174.695 303 175 302.695 175 302.314C175 301.934 174.695 301.628 174.314 301.628H25.1688C24.7885 301.628 24.4832 301.934 24.4832 302.314Z" fill="#484565"/>
<path d="M102.916 0.190396C102.916 0.190396 90.2917 -2.87178 82.6512 15.6282C76.2841 31.0486 71.7667 39.2836 76.9352 44.8774C78.7849 46.8785 81.4239 47.9569 84.1436 48.0492L113.242 49.0065C113.242 49.0065 123.925 20.9682 117.431 10.8302C110.937 0.686342 102.916 0.190396 102.916 0.190396Z" fill="#2F2E41"/>
<path d="M108.944 46.6765L94.9475 51.2842V31.1177H107.647L108.944 46.6765Z" fill="#F6A6A9"/>
<path d="M98.2029 291.046H85.0885L77.4883 220.933H97.7535L98.2029 291.046Z" fill="#F6A6A9"/>
<path d="M72.3199 302.314C70.9427 302.314 69.7154 302.28 68.7877 302.193C65.3017 301.876 61.9827 299.304 60.3117 297.799C59.5626 297.124 59.3206 296.046 59.7124 295.117C59.9948 294.448 60.5537 293.952 61.2452 293.756L70.4472 291.127L85.3479 281.063L85.515 281.363C85.5784 281.473 87.042 284.114 87.5318 285.896C87.7161 286.577 87.67 287.142 87.3877 287.574C87.1918 287.88 86.921 288.053 86.6963 288.151C86.9671 288.433 87.8141 289.004 90.4128 289.42C94.2158 290.025 95.0109 286.081 95.0455 285.913L95.0685 285.781L95.1838 285.706C96.9931 284.541 98.1052 284.01 98.4912 284.12C98.7332 284.189 99.1308 284.31 100.208 295.048C100.318 295.382 101.073 297.856 100.56 300.215C100.001 302.787 88.7821 301.899 86.5349 301.697C86.4715 301.703 78.0704 302.303 72.3141 302.303V302.314H72.3199Z" fill="#2F2E41"/>
<path d="M127.82 291.046H114.711L107.105 220.933H127.371L127.82 291.046Z" fill="#F6A6A9"/>
<path d="M101.943 302.314C100.566 302.314 99.3382 302.28 98.4105 302.193C94.9245 301.876 91.6055 299.304 89.9345 297.799C89.1854 297.124 88.9434 296.046 89.3352 295.117C89.6176 294.448 90.1765 293.952 90.868 293.756L100.07 291.127L114.971 281.063L115.138 281.363C115.201 281.473 116.665 284.114 117.155 285.896C117.339 286.577 117.293 287.142 117.011 287.574C116.815 287.88 116.544 288.053 116.319 288.151C116.59 288.433 117.437 289.004 120.036 289.42C123.839 290.025 124.634 286.081 124.668 285.913L124.691 285.781L124.807 285.706C126.616 284.541 127.728 284.01 128.114 284.12C128.356 284.189 128.754 284.31 129.831 295.048C129.941 295.382 130.695 297.856 130.183 300.215C129.624 302.787 118.405 301.899 116.158 301.697C116.094 301.703 107.693 302.303 101.937 302.303V302.314H101.943Z" fill="#2F2E41"/>
<path d="M131.594 118.837H67.8887L90.7872 43.4126H116.186L131.594 118.837Z" fill="#DDDEDF"/>
<path d="M66.1544 161.16C65.3938 165.779 62.3168 169.095 59.2802 168.558C56.2436 168.022 54.394 163.847 55.1546 159.228C55.4311 157.376 56.1629 155.629 57.2865 154.124L60.7553 134.592L70.1993 136.57L65.7741 155.612C66.356 157.411 66.4886 159.314 66.1601 161.16H66.1544Z" fill="#F6A6A9"/>
<path d="M94.7976 43.4241C94.7976 43.4241 78.9749 43.0089 77.3097 47.1725C75.6444 51.3419 56.0764 150.52 56.0764 150.52H68.9835L94.7976 43.4241Z" fill="#DDDEDF"/>
<path d="M98.157 35.8809C105.861 35.8809 112.107 29.6302 112.107 21.9195C112.107 14.2088 105.861 7.95801 98.157 7.95801C90.4527 7.95801 84.207 14.2088 84.207 21.9195C84.207 29.6302 90.4527 35.8809 98.157 35.8809Z" fill="#F6A6A9"/>
<path d="M100.346 4.79776C100.346 4.79776 82.438 31.4577 85.4515 48.0892L75.0337 41.5554C75.0337 41.5554 82.3688 7.88877 93.2995 5.2764L100.346 4.79199V4.79776Z" fill="#2F2E41"/>
<path d="M118.353 118.837H76.5492L53.6738 212.796C53.2531 216.763 55.7654 220.465 59.6202 221.498C72.17 224.86 102.283 229.629 147.866 216.354C152.251 215.079 154.741 210.449 153.363 206.089L118.353 118.843V118.837Z" fill="#2F2E41"/>
<path d="M61.9712 56.7918L61.6831 56.5035L61.395 56.7918C47.3759 42.7727 24.656 42.79 10.6484 56.8206C-3.35919 70.8571 -3.64154 93.8782 10.3776 107.897L61.7177 159.228L113.023 107.834C127.031 93.7974 126.737 70.7763 112.724 56.7572C98.7045 42.7381 75.9846 42.7554 61.977 56.786L61.9712 56.7918Z" fill="#FD6B6B"/>
<path d="M99.8855 50.4711L111.467 44.5255C116.763 42.5648 122.669 43.2222 127.405 46.3075C141.81 55.6843 170.206 76.3584 158.002 86.5772C141.92 100.048 120.18 76.1565 120.18 76.1565L99.8855 50.4711Z" fill="#DDDEDF"/>
<path d="M99.632 60.6322C95.6043 58.2562 93.6279 54.1849 95.224 51.5379C96.8201 48.8967 101.378 48.6833 105.411 51.0592C107.036 51.9877 108.402 53.3025 109.393 54.8942L126.333 65.1937L121.078 73.2903L104.933 62.2757C103.043 62.1661 101.222 61.601 99.6262 60.6264H99.632V60.6322Z" fill="#F6A6A9"/>
<path d="M111.145 69.969L115.962 58.4526L139.5 66.2494L128.973 83.7863L111.145 69.969Z" fill="#DDDEDF"/>
</g>
<defs>
<clipPath id="clip0_67_418">
<rect width="175" height="303" fill="white"/>
</clipPath>
</defs>
</svg>
