<svg width="32" height="32" viewBox="0 0 32 32" fill="none" xmlns="http://www.w3.org/2000/svg">
<g clip-path="url(#clip0_84_114)">
<path fill-rule="evenodd" clip-rule="evenodd" d="M11.6558 20.3438C11.4683 20.1563 11.214 20.051 10.9488 20.051C10.6836 20.051 10.4293 20.1563 10.2418 20.3438L2.0498 28.5358V22.9998C2.0498 22.7346 1.94445 22.4802 1.75691 22.2927C1.56938 22.1052 1.31502 21.9998 1.0498 21.9998C0.784588 21.9998 0.530234 22.1052 0.342698 22.2927C0.155162 22.4802 0.0498047 22.7346 0.0498047 22.9998V30.9498C0.0498047 31.215 0.155162 31.4694 0.342698 31.6569C0.530234 31.8444 0.784588 31.9498 1.0498 31.9498H8.9998C9.26502 31.9498 9.51937 31.8444 9.70691 31.6569C9.89445 31.4694 9.9998 31.215 9.9998 30.9498C9.9998 30.6846 9.89445 30.4302 9.70691 30.2427C9.51937 30.0552 9.26502 29.9498 8.9998 29.9498H3.4638L11.6558 21.7578C11.8433 21.5703 11.9486 21.316 11.9486 21.0508C11.9486 20.7856 11.8433 20.5313 11.6558 20.3438ZM20.3438 20.3438C20.5313 20.1563 20.7856 20.051 21.0508 20.051C21.316 20.051 21.5703 20.1563 21.7578 20.3438L29.9498 28.5358V22.9998C29.9498 22.7346 30.0552 22.4802 30.2427 22.2927C30.4302 22.1052 30.6846 21.9998 30.9498 21.9998C31.215 21.9998 31.4694 22.1052 31.6569 22.2927C31.8444 22.4802 31.9498 22.7346 31.9498 22.9998V30.9498C31.9498 31.215 31.8444 31.4694 31.6569 31.6569C31.4694 31.8444 31.215 31.9498 30.9498 31.9498H22.9998C22.7346 31.9498 22.4802 31.8444 22.2927 31.6569C22.1052 31.4694 21.9998 31.215 21.9998 30.9498C21.9998 30.6846 22.1052 30.4302 22.2927 30.2427C22.4802 30.0552 22.7346 29.9498 22.9998 29.9498H28.5358L20.3438 21.7578C20.1563 21.5703 20.051 21.316 20.051 21.0508C20.051 20.7856 20.1563 20.5313 20.3438 20.3438ZM20.3438 11.6558C20.5313 11.8433 20.7856 11.9486 21.0508 11.9486C21.316 11.9486 21.5703 11.8433 21.7578 11.6558L29.9498 3.4638V8.9998C29.9498 9.26502 30.0552 9.51937 30.2427 9.70691C30.4302 9.89445 30.6846 9.9998 30.9498 9.9998C31.215 9.9998 31.4694 9.89445 31.6569 9.70691C31.8444 9.51937 31.9498 9.26502 31.9498 8.9998V1.0498C31.9498 0.784588 31.8444 0.530234 31.6569 0.342698C31.4694 0.155162 31.215 0.0498047 30.9498 0.0498047H22.9998C22.7346 0.0498047 22.4802 0.155162 22.2927 0.342698C22.1052 0.530234 21.9998 0.784588 21.9998 1.0498C21.9998 1.31502 22.1052 1.56938 22.2927 1.75691C22.4802 1.94445 22.7346 2.0498 22.9998 2.0498H28.5358L20.3438 10.2418C20.1563 10.4293 20.051 10.6836 20.051 10.9488C20.051 11.214 20.1563 11.4683 20.3438 11.6558ZM11.6558 11.6558C11.4683 11.8433 11.214 11.9486 10.9488 11.9486C10.6836 11.9486 10.4293 11.8433 10.2418 11.6558L2.0498 3.4638V8.9998C2.0498 9.26502 1.94445 9.51937 1.75691 9.70691C1.56938 9.89445 1.31502 9.9998 1.0498 9.9998C0.784588 9.9998 0.530234 9.89445 0.342698 9.70691C0.155162 9.51937 0.0498047 9.26502 0.0498047 8.9998V1.0498C0.0498047 0.784588 0.155162 0.530234 0.342698 0.342698C0.530234 0.155162 0.784588 0.0498047 1.0498 0.0498047H8.9998C9.26502 0.0498047 9.51937 0.155162 9.70691 0.342698C9.89445 0.530234 9.9998 0.784588 9.9998 1.0498C9.9998 1.31502 9.89445 1.56938 9.70691 1.75691C9.51937 1.94445 9.26502 2.0498 8.9998 2.0498H3.4638L11.6558 10.2418C11.8433 10.4293 11.9486 10.6836 11.9486 10.9488C11.9486 11.214 11.8433 11.4683 11.6558 11.6558Z" fill="#F6FEFA"/>
</g>
<defs>
<clipPath id="clip0_84_114">
<rect width="32" height="32" fill="white"/>
</clipPath>
</defs>
</svg>
