<svg width="32" height="33" viewBox="0 0 32 33" fill="none" xmlns="http://www.w3.org/2000/svg">
<path d="M0.1 7.61C0.301636 6.72649 0.797311 5.93763 1.50584 5.37262C2.21438 4.80761 3.09377 4.49994 4 4.5H28C28.9062 4.49994 29.7856 4.80761 30.4942 5.37262C31.2027 5.93763 31.6984 6.72649 31.9 7.61L16 17.328L0.1 7.61ZM0 9.894V24.102L11.606 16.986L0 9.894ZM13.522 18.16L0.382 26.214C0.706653 26.8986 1.21905 27.4769 1.85956 27.8816C2.50007 28.2863 3.24235 28.5007 4 28.5H28C28.7575 28.5002 29.4995 28.2852 30.1397 27.8802C30.7798 27.4751 31.2918 26.8966 31.616 26.212L18.476 18.158L16 19.672L13.522 18.16ZM20.394 16.988L32 24.102V9.894L20.394 16.986V16.988Z" fill="#168888"/>
</svg>
