<svg width="32" height="32" viewBox="0 0 32 32" fill="none" xmlns="http://www.w3.org/2000/svg">
<g clip-path="url(#clip0_58_221)">
<path d="M22.5019 0.135907C22.6977 0.249384 22.8491 0.425887 22.9316 0.636582C23.0141 0.847277 23.0226 1.07971 22.9559 1.29591L19.3539 12.9999H25.9999C26.1952 12.9998 26.3863 13.0569 26.5495 13.1642C26.7127 13.2715 26.841 13.4242 26.9184 13.6035C26.9958 13.7828 27.019 13.9809 26.9852 14.1732C26.9513 14.3656 26.8619 14.5438 26.7279 14.6859L10.7279 31.6859C10.5731 31.8505 10.3671 31.9579 10.1435 31.9904C9.91983 32.023 9.69177 31.9788 9.49645 31.8651C9.30113 31.7515 9.15007 31.575 9.06789 31.3645C8.98571 31.154 8.97726 30.9218 9.04391 30.7059L12.6459 18.9999H5.99991C5.8046 19 5.61354 18.9429 5.45032 18.8356C5.2871 18.7283 5.15886 18.5756 5.08144 18.3963C5.00402 18.217 4.9808 18.019 5.01464 17.8266C5.04849 17.6342 5.13793 17.456 5.27191 17.3139L21.2719 0.313907C21.4265 0.149505 21.6322 0.0422441 21.8555 0.00956402C22.0789 -0.0231161 22.3067 0.0207067 22.5019 0.133907V0.135907Z" fill="#F6FEFA"/>
</g>
<defs>
<clipPath id="clip0_58_221">
<rect width="32" height="32" fill="white"/>
</clipPath>
</defs>
</svg>
