<svg width="32" height="33" viewBox="0 0 32 33" fill="none" xmlns="http://www.w3.org/2000/svg">
<g clip-path="url(#clip0_67_458)">
<path fill-rule="evenodd" clip-rule="evenodd" d="M3.76997 1.52229C4.11991 1.17287 4.54013 0.90181 5.00276 0.727074C5.46539 0.552337 5.95987 0.477915 6.45344 0.50874C6.94701 0.539564 7.4284 0.674931 7.86569 0.90587C8.30299 1.13681 8.68621 1.45805 8.98997 1.84829L12.58 6.46029C13.238 7.30629 13.47 8.40829 13.21 9.44829L12.116 13.8283C12.0594 14.0552 12.0625 14.2928 12.1248 14.5181C12.1872 14.7434 12.3068 14.9488 12.472 15.1143L17.386 20.0283C17.5516 20.1938 17.7574 20.3136 17.9831 20.376C18.2088 20.4384 18.4468 20.4412 18.674 20.3843L23.052 19.2903C23.5652 19.162 24.1009 19.152 24.6185 19.2611C25.1362 19.3703 25.6222 19.5957 26.04 19.9203L30.652 23.5083C32.31 24.7983 32.462 27.2483 30.978 28.7303L28.91 30.7983C27.43 32.2783 25.218 32.9283 23.156 32.2023C17.8783 30.3453 13.0865 27.324 9.13597 23.3623C5.17454 19.4123 2.15318 14.6212 0.295965 9.34429C-0.428035 7.28429 0.221965 5.07029 1.70197 3.59029L3.76997 1.52229Z" fill="#168888"/>
</g>
<defs>
<clipPath id="clip0_67_458">
<rect width="32" height="32" fill="white" transform="translate(0 0.5)"/>
</clipPath>
</defs>
</svg>
